# xmcd
#
# Track frame offsets:
#	150
#	3015
#	23415
#	45915
#	60540
#	83040
#	106365
#	136065
#	153765
#	167790
#	179790
#	199665
#
# Disc length: 2957 seconds
#
# Revision: 3
# Processed by: cddbd v1.5.2PL0 Copyright (c) Steve Scherf et al.
# Submitted via: audiograbber 1.83.01
#
DISCID=830b8b0c
DTITLE=Mystic Moods Orchestra - Stormy Memories 
DYEAR=1990
DGENRE=
TTITLE0=Seashore
TTITLE1=Memory
TTITLE2=Send In The Clowns
TTITLE3=Summer Of '42
TTITLE4=Chopin Nocturne
TTITLE5=Porgy And Bess
TTITLE6=Phantom Of The Opera
TTITLE7=Evergreen
TTITLE8=Chopin Etude
TTITLE9=Dreaming
TTITLE10=Ice Castles
TTITLE11=If
EXTD=
EXTT0=
EXTT1=
EXTT2=
EXTT3=
EXTT4=
EXTT5=
EXTT6=
EXTT7=
EXTT8=
EXTT9=
EXTT10=
EXTT11=
PLAYORDER=
